<svg width="860" height="860" viewBox="0 0 860 860" fill="none" xmlns="http://www.w3.org/2000/svg">
<rect x="130" y="144" width="599" height="572" fill="white"/>
<g clip-path="url(#clip0_202_8)">
<path d="M859.918 432.543C858.626 643.46 705.585 818.335 504.46 853.46L243.834 610.168H319.626V319.251H419.084V255.751L472.335 305.459C464.918 319.043 460.918 334.793 460.918 352.251C460.918 413.751 497.335 439.876 559.376 462.501C608.085 480.251 629.251 492.543 629.251 516.126C629.251 533.376 613.501 543.71 586.418 547.668C577.085 549.626 566.251 550.126 554.918 549.626C522.918 547.668 490.46 536.835 465.793 524.001V596.876C491.418 608.21 530.793 617.043 571.168 617.043C654.835 617.043 703.085 578.668 703.085 514.668C703.085 455.13 664.71 429.043 602.668 404.918C554.418 386.668 535.251 372.418 535.251 351.751C535.251 329.126 558.835 314.834 595.251 314.834C627.751 314.834 661.21 324.168 681.918 336.459V266.584L859.918 432.543Z" fill="#0B9E91"/>
<path d="M859.918 429.959V432.543L681.918 266.584C659.751 256.751 624.793 248.876 589.376 248.876C534.21 248.876 491.626 269.959 472.335 305.459L419.084 255.751H144.876V319.251H243.834V610.168L504.46 853.46C480.289 857.668 455.376 859.918 429.959 859.918C192.501 859.918 0.000812531 667.418 0.000812531 429.959C0.000812531 357.793 17.8342 289.709 49.2509 230.001C121.209 93.2508 264.668 0.000732422 429.959 0.000732422C667.418 0.000732422 859.918 192.543 859.918 429.959Z" fill="#08B9B0"/>
</g>
<defs>
<clipPath id="clip0_202_8">
<rect width="860" height="860" fill="white"/>
</clipPath>
</defs>
</svg>
